<mxfile host="app.diagrams.net" modified="2023-11-07T20:37:34.103Z" agent="Mozilla/5.0 (Windows NT 10.0; Win64; x64) AppleWebKit/537.36 (KHTML, like Gecko) Chrome/118.0.0.0 Safari/537.36" version="22.0.8" etag="wZ2YagLihdRk32NS_iS1" type="github">
  <diagram name="Page-1" id="E8K3POrQzvOaL9dSl8gN">
    <mxGraphModel>
      <root>
        <mxCell id="0" />
        <mxCell id="1" parent="0" />
      </root>
    </mxGraphModel>
  </diagram>
</mxfile>
